<svg xmlns="http://www.w3.org/2000/svg" viewBox="0 0 1920 1080" preserveAspectRatio="xMidYMid slice">
  <defs>
    <linearGradient id="twilight" x1="0" y1="0" x2="0" y2="1">
      <stop offset="0%" stop-color="#8aa5d2"/>
      <stop offset="48%" stop-color="#7087bb"/>
      <stop offset="100%" stop-color="#32456f"/>
    </linearGradient>
    <radialGradient id="mist" cx="0.22" cy="0.25" r="0.58">
      <stop offset="0%" stop-color="#cae5ff" stop-opacity="0.6"/>
      <stop offset="44%" stop-color="#f6d6c8" stop-opacity="0.33"/>
      <stop offset="100%" stop-color="#f6d6c8" stop-opacity="0"/>
    </radialGradient>
    <linearGradient id="waterGlow" x1="0" y1="0" x2="0" y2="1">
      <stop offset="0%" stop-color="#6e8eb6" stop-opacity="0.78"/>
      <stop offset="100%" stop-color="#2c4066" stop-opacity="0.96"/>
    </linearGradient>
    <filter id="blurCloud" x="-20%" y="-20%" width="140%" height="140%">
      <feGaussianBlur stdDeviation="7"/>
    </filter>
  </defs>

  <rect width="1920" height="1080" fill="url(#twilight)"/>
  <rect width="1920" height="1080" fill="url(#mist)"/>

  <g opacity="0.44" filter="url(#blurCloud)">
    <ellipse cx="220" cy="210" rx="250" ry="88" fill="#e0ecff"/>
    <ellipse cx="560" cy="160" rx="280" ry="102" fill="#ffe7da"/>
    <ellipse cx="910" cy="220" rx="330" ry="114" fill="#cfdef8"/>
    <ellipse cx="1320" cy="190" rx="280" ry="96" fill="#ffe8cf"/>
    <ellipse cx="1680" cy="250" rx="250" ry="86" fill="#dbe7ff"/>
  </g>

  <g opacity="0.6" fill="#4e6490">
    <polygon points="0,665 180,596 360,633 540,572 730,626 960,560 1240,625 1500,550 1920,620 1920,845 0,845"/>
  </g>

  <g opacity="0.9">
    <rect x="70" y="600" width="110" height="240" rx="9" fill="#5e739f"/>
    <rect x="205" y="555" width="140" height="285" rx="11" fill="#7c88b4"/>
    <rect x="375" y="530" width="78" height="310" rx="9" fill="#5f78a5"/>
    <rect x="480" y="575" width="130" height="265" rx="10" fill="#7382ad"/>
    <rect x="640" y="505" width="110" height="335" rx="10" fill="#5d719f"/>
    <rect x="780" y="540" width="155" height="300" rx="12" fill="#7f8cb7"/>
    <rect x="965" y="485" width="128" height="355" rx="14" fill="#6076a3"/>
    <rect x="1125" y="518" width="170" height="322" rx="14" fill="#808eba"/>
    <rect x="1325" y="560" width="128" height="280" rx="11" fill="#627eaf"/>
    <rect x="1480" y="515" width="98" height="325" rx="12" fill="#5f77a4"/>
    <rect x="1610" y="575" width="145" height="265" rx="11" fill="#7a89b5"/>
    <rect x="1780" y="535" width="118" height="305" rx="12" fill="#6077a4"/>
  </g>

  <g opacity="0.32" stroke="#fff6e6" stroke-width="3">
    <line x1="78" y1="662" x2="176" y2="662"/>
    <line x1="214" y1="642" x2="345" y2="642"/>
    <line x1="484" y1="668" x2="607" y2="668"/>
    <line x1="785" y1="640" x2="934" y2="640"/>
    <line x1="970" y1="630" x2="1092" y2="630"/>
    <line x1="1128" y1="652" x2="1292" y2="652"/>
    <line x1="1484" y1="648" x2="1578" y2="648"/>
    <line x1="1616" y1="680" x2="1752" y2="680"/>
  </g>

  <g opacity="0.8">
    <rect y="770" width="1920" height="310" fill="url(#waterGlow)"/>
    <polygon points="0,900 320,845 710,900 1125,838 1515,900 1920,852 1920,1080 0,1080" fill="#2f456f" fill-opacity="0.95"/>
    <line x1="150" y1="884" x2="1760" y2="884" stroke="#ffd3a0" stroke-opacity="0.5" stroke-width="4"/>
    <line x1="190" y1="918" x2="1720" y2="918" stroke="#d9f2ff" stroke-opacity="0.35" stroke-width="2"/>
    <line x1="230" y1="950" x2="1680" y2="950" stroke="#ffe0ca" stroke-opacity="0.3" stroke-width="2"/>
  </g>
</svg>
