<svg xmlns="http://www.w3.org/2000/svg" viewBox="0 0 1920 1080" preserveAspectRatio="xMidYMid slice">
  <defs>
    <linearGradient id="skyWash" x1="0" y1="0" x2="0" y2="1">
      <stop offset="0%" stop-color="#8ea9d8"/>
      <stop offset="45%" stop-color="#6f80be"/>
      <stop offset="100%" stop-color="#2f3d6b"/>
    </linearGradient>
    <radialGradient id="sunGlow" cx="0.72" cy="0.22" r="0.42">
      <stop offset="0%" stop-color="#ffd8a8" stop-opacity="0.95"/>
      <stop offset="42%" stop-color="#f7b7a9" stop-opacity="0.55"/>
      <stop offset="100%" stop-color="#f7b7a9" stop-opacity="0"/>
    </radialGradient>
    <linearGradient id="bay" x1="0" y1="0" x2="0" y2="1">
      <stop offset="0%" stop-color="#5d7ca5" stop-opacity="0.82"/>
      <stop offset="100%" stop-color="#2f456f" stop-opacity="0.96"/>
    </linearGradient>
    <linearGradient id="towerBlue" x1="0" y1="0" x2="0" y2="1">
      <stop offset="0%" stop-color="#9eb8d8"/>
      <stop offset="100%" stop-color="#4e618d"/>
    </linearGradient>
    <linearGradient id="towerPeach" x1="0" y1="0" x2="0" y2="1">
      <stop offset="0%" stop-color="#e8b3a0"/>
      <stop offset="100%" stop-color="#9f6877"/>
    </linearGradient>
    <filter id="soften" x="-20%" y="-20%" width="140%" height="140%">
      <feGaussianBlur stdDeviation="8"/>
    </filter>
  </defs>

  <rect width="1920" height="1080" fill="url(#skyWash)"/>
  <rect width="1920" height="1080" fill="url(#sunGlow)"/>

  <g opacity="0.42" filter="url(#soften)">
    <ellipse cx="350" cy="220" rx="260" ry="95" fill="#d7e7ff"/>
    <ellipse cx="640" cy="170" rx="320" ry="110" fill="#fce8dd"/>
    <ellipse cx="1030" cy="240" rx="340" ry="130" fill="#bfd2f5"/>
    <ellipse cx="1450" cy="190" rx="300" ry="105" fill="#fde1c9"/>
  </g>

  <g opacity="0.65">
    <polygon points="0,590 140,540 320,565 500,520 710,560 930,510 1210,555 1430,500 1690,548 1920,515 1920,760 0,760" fill="#4b608f"/>
    <polygon points="0,655 220,612 440,645 660,595 860,640 1110,585 1370,640 1590,605 1920,645 1920,790 0,790" fill="#3f537f"/>
  </g>

  <rect y="735" width="1920" height="345" fill="url(#bay)"/>

  <g opacity="0.95">
    <rect x="120" y="495" width="110" height="255" rx="10" fill="url(#towerBlue)"/>
    <rect x="255" y="455" width="120" height="295" rx="12" fill="url(#towerPeach)"/>
    <polygon points="430,750 510,350 590,750" fill="url(#towerBlue)"/>
    <rect x="620" y="465" width="130" height="285" rx="10" fill="url(#towerBlue)"/>
    <rect x="770" y="530" width="95" height="220" rx="8" fill="url(#towerPeach)"/>
    <rect x="890" y="395" width="110" height="355" rx="20" fill="url(#towerBlue)"/>
    <rect x="1030" y="330" width="145" height="420" rx="26" fill="url(#towerBlue)"/>
    <rect x="1210" y="435" width="120" height="315" rx="12" fill="url(#towerPeach)"/>
    <rect x="1360" y="395" width="100" height="355" rx="10" fill="url(#towerBlue)"/>
    <polygon points="1490,750 1575,360 1660,750" fill="url(#towerPeach)"/>
    <rect x="1690" y="470" width="125" height="280" rx="12" fill="url(#towerBlue)"/>
  </g>

  <g opacity="0.35" stroke="#fff4df" stroke-width="3">
    <line x1="130" y1="570" x2="220" y2="570"/>
    <line x1="260" y1="540" x2="370" y2="540"/>
    <line x1="620" y1="560" x2="745" y2="560"/>
    <line x1="905" y1="500" x2="1000" y2="500"/>
    <line x1="1030" y1="460" x2="1175" y2="460"/>
    <line x1="1360" y1="500" x2="1460" y2="500"/>
    <line x1="1695" y1="535" x2="1815" y2="535"/>
  </g>

  <g opacity="0.55">
    <rect x="0" y="690" width="1920" height="8" fill="#f4a782"/>
    <rect x="160" y="696" width="16" height="82" fill="#f2af88"/>
    <rect x="660" y="696" width="14" height="96" fill="#f2af88"/>
    <rect x="1110" y="696" width="14" height="110" fill="#f2af88"/>
    <rect x="1540" y="696" width="16" height="90" fill="#f2af88"/>
  </g>
</svg>
