<svg xmlns="http://www.w3.org/2000/svg" viewBox="0 0 1920 1080" preserveAspectRatio="xMidYMid slice">
  <defs>
    <linearGradient id="sky" x1="0" y1="0" x2="0" y2="1">
      <stop offset="0%" stop-color="#0b1234"/>
      <stop offset="45%" stop-color="#1a1f4f"/>
      <stop offset="100%" stop-color="#050810"/>
    </linearGradient>
    <radialGradient id="sunGlow" cx="0.72" cy="0.2" r="0.4">
      <stop offset="0%" stop-color="#ffd16d" stop-opacity="0.92"/>
      <stop offset="45%" stop-color="#ff5fa2" stop-opacity="0.35"/>
      <stop offset="100%" stop-color="#ff5fa2" stop-opacity="0"/>
    </radialGradient>
    <linearGradient id="towerFaceA" x1="0" y1="0" x2="0" y2="1">
      <stop offset="0%" stop-color="#27f1ff" stop-opacity="0.38"/>
      <stop offset="100%" stop-color="#0a142a" stop-opacity="0.96"/>
    </linearGradient>
    <linearGradient id="towerFaceB" x1="0" y1="0" x2="0" y2="1">
      <stop offset="0%" stop-color="#ff5ec2" stop-opacity="0.32"/>
      <stop offset="100%" stop-color="#110a24" stop-opacity="0.96"/>
    </linearGradient>
    <linearGradient id="water" x1="0" y1="0" x2="0" y2="1">
      <stop offset="0%" stop-color="#1b3f70" stop-opacity="0.6"/>
      <stop offset="100%" stop-color="#050a12" stop-opacity="0.95"/>
    </linearGradient>
  </defs>

  <rect width="1920" height="1080" fill="url(#sky)"/>
  <rect width="1920" height="1080" fill="url(#sunGlow)"/>
  <ellipse cx="1375" cy="210" rx="180" ry="120" fill="#ffd86b" fill-opacity="0.12"/>

  <g opacity="0.9">
    <polygon points="0,560 180,500 340,540 520,470 780,530 1010,460 1300,520 1560,450 1920,530 1920,760 0,760" fill="#10253f" fill-opacity="0.65"/>
    <rect y="730" width="1920" height="350" fill="url(#water)"/>
  </g>

  <g opacity="0.96">
    <rect x="120" y="470" width="90" height="280" fill="url(#towerFaceA)"/>
    <rect x="235" y="420" width="110" height="330" fill="url(#towerFaceB)"/>
    <polygon points="400,750 480,355 560,750" fill="url(#towerFaceA)"/>
    <rect x="595" y="445" width="120" height="305" fill="url(#towerFaceA)"/>
    <rect x="730" y="500" width="85" height="250" fill="url(#towerFaceB)"/>
    <rect x="840" y="370" width="95" height="380" rx="10" fill="url(#towerFaceA)"/>
    <rect x="960" y="315" width="130" height="435" rx="18" fill="url(#towerFaceA)"/>
    <rect x="1120" y="410" width="115" height="340" fill="url(#towerFaceB)"/>
    <rect x="1260" y="380" width="95" height="370" fill="url(#towerFaceA)"/>
    <polygon points="1390,750 1470,340 1550,750" fill="url(#towerFaceB)"/>
    <rect x="1580" y="440" width="120" height="310" fill="url(#towerFaceA)"/>
    <rect x="1730" y="500" width="85" height="250" fill="url(#towerFaceB)"/>
  </g>

  <g stroke="#25f0ff" stroke-opacity="0.28" stroke-width="2">
    <line x1="120" y1="540" x2="210" y2="540"/>
    <line x1="235" y1="500" x2="345" y2="500"/>
    <line x1="595" y1="540" x2="715" y2="540"/>
    <line x1="840" y1="470" x2="935" y2="470"/>
    <line x1="960" y1="430" x2="1090" y2="430"/>
    <line x1="1260" y1="470" x2="1355" y2="470"/>
    <line x1="1580" y1="510" x2="1700" y2="510"/>
  </g>

  <g opacity="0.85">
    <rect x="0" y="680" width="1920" height="8" fill="#ff9550" fill-opacity="0.55"/>
    <rect x="130" y="686" width="14" height="80" fill="#ff9550" fill-opacity="0.55"/>
    <rect x="600" y="686" width="14" height="96" fill="#ff9550" fill-opacity="0.55"/>
    <rect x="1020" y="686" width="14" height="112" fill="#ff9550" fill-opacity="0.55"/>
    <rect x="1490" y="686" width="14" height="90" fill="#ff9550" fill-opacity="0.55"/>
  </g>
</svg>
